<?xml version="1.0" encoding="UTF-8"?>
<svg id="Layer_1" data-name="Layer 1" xmlns="http://www.w3.org/2000/svg" viewBox="0 0 256 256">
  <defs>
    <style>
      .cls-1 {
        fill: #fff;
        stroke-width: 0px;
      }
    </style>
  </defs>
  <path class="cls-1" d="M0,128c0,52.41,31.52,97.44,76.62,117.24-.36-8.94-.06-19.67,2.23-29.39,2.46-10.39,16.47-69.75,16.47-69.75,0,0-4.09-8.17-4.09-20.25,0-18.97,10.99-33.14,24.69-33.14,11.64,0,17.27,8.75,17.27,19.22,0,11.7-7.47,29.21-11.3,45.43-3.21,13.58,6.81,24.65,20.2,24.65,24.25,0,40.59-31.15,40.59-68.05,0-28.05-18.9-49.05-53.26-49.05-38.83,0-63.02,28.96-63.02,61.3,0,11.15,3.29,19.02,8.44,25.11,2.37,2.8,2.7,3.92,1.84,7.13-.61,2.36-2.02,8.03-2.61,10.27-.85,3.24-3.48,4.4-6.41,3.2-17.88-7.3-26.21-26.89-26.21-48.9,0-36.36,30.67-79.96,91.48-79.96,48.87,0,81.04,35.36,81.04,73.32,0,50.21-27.92,87.73-69.07,87.73-13.82,0-26.82-7.47-31.27-15.96,0,0-7.43,29.49-9,35.19-2.71,9.87-8.03,19.73-12.88,27.42,11.51,3.4,23.67,5.25,36.28,5.25,70.68,0,128-57.31,128-128S198.69,0,128.01,0,0,57.31,0,128Z"/>
</svg>