<?xml version="1.0" encoding="utf-8"?>
<!-- Generator: Adobe Illustrator 28.1.0, SVG Export Plug-In . SVG Version: 6.00 Build 0)  -->
<svg version="1.1" id="Ebene_1" xmlns="http://www.w3.org/2000/svg" xmlns:xlink="http://www.w3.org/1999/xlink" x="0px" y="0px"
	 viewBox="0 0 351.5 167.24" style="enable-background:new 0 0 351.5 167.24;" xml:space="preserve">
<g>
	<g>
		<path d="M1.25,20.69V5.83h63.98v14.86H42.28v60.84H24.24V20.69H1.25z"/>
		<path d="M71.61,81.52V5.83h31.27c5.67,0,10.56,1.02,14.69,3.05c4.13,2.03,7.31,4.94,9.55,8.72c2.24,3.78,3.36,8.26,3.36,13.44
			c0,5.25-1.15,9.7-3.44,13.36s-5.54,6.44-9.76,8.35c-4.21,1.91-9.2,2.86-14.97,2.86H82.55V41.2h16.37c2.76,0,5.07-0.36,6.93-1.09
			c1.86-0.73,3.27-1.83,4.23-3.33c0.96-1.49,1.44-3.41,1.44-5.75c0-2.34-0.48-4.28-1.44-5.82c-0.96-1.54-2.38-2.7-4.25-3.47
			c-1.87-0.78-4.18-1.16-6.91-1.16h-9.02v60.95H71.61z M114.23,46.93l18.85,34.6h-19.96l-18.48-34.6H114.23z"/>
		<path d="M137.91,81.52V5.83h52.78v14.86H156.2v15.52h31.79v14.9H156.2v15.56h34.49v14.86H137.91z"/>
		<path d="M263.97,5.83v75.7h-15.52l-30.12-43.69h-0.48v43.69h-18.3V5.83h15.75l29.79,43.62h0.63V5.83H263.97z"/>
		<path d="M300.8,81.52h-27.98V5.83h27.94c7.71,0,14.36,1.51,19.94,4.53c5.58,3.02,9.89,7.36,12.92,13.01
			c3.03,5.66,4.55,12.41,4.55,20.27c0,7.89-1.51,14.66-4.53,20.33c-3.02,5.67-7.32,10.01-12.92,13.03
			C315.13,80.02,308.49,81.52,300.8,81.52z M291.12,65.93h8.98c4.24,0,7.83-0.72,10.77-2.16s5.17-3.79,6.69-7.06
			c1.52-3.26,2.27-7.62,2.27-13.07s-0.76-9.79-2.29-13.03c-1.53-3.24-3.78-5.58-6.75-7.02c-2.97-1.44-6.62-2.16-10.96-2.16h-8.72
			V65.93z"/>
		<path d="M44.65,109.34c-0.25-2.71-1.34-4.82-3.27-6.34c-1.93-1.51-4.69-2.27-8.26-2.27c-2.37,0-4.34,0.31-5.91,0.92
			c-1.58,0.62-2.76,1.46-3.55,2.53c-0.79,1.07-1.2,2.3-1.22,3.68c-0.05,1.13,0.18,2.13,0.68,2.99c0.5,0.86,1.24,1.62,2.22,2.27
			c0.97,0.65,2.15,1.23,3.53,1.72c1.38,0.49,2.93,0.92,4.66,1.29l6.5,1.48c3.75,0.81,7.05,1.9,9.92,3.25
			c2.87,1.36,5.29,2.97,7.24,4.84s3.44,4.03,4.45,6.47c1.01,2.44,1.53,5.17,1.55,8.21c-0.03,4.78-1.23,8.88-3.62,12.31
			c-2.39,3.43-5.82,6.05-10.29,7.87c-4.47,1.82-9.86,2.74-16.17,2.74c-6.33,0-11.85-0.95-16.56-2.85c-4.71-1.9-8.37-4.78-10.98-8.65
			c-2.61-3.87-3.96-8.76-4.03-14.67h17.52c0.15,2.44,0.8,4.47,1.96,6.1s2.75,2.86,4.79,3.7c2.03,0.84,4.39,1.26,7.08,1.26
			c2.46,0,4.57-0.33,6.3-1s3.07-1.59,4.01-2.77s1.42-2.54,1.44-4.07c-0.02-1.43-0.47-2.66-1.33-3.68c-0.86-1.02-2.19-1.91-3.97-2.66
			c-1.79-0.75-4.06-1.45-6.82-2.09l-7.91-1.85c-6.55-1.5-11.72-3.94-15.49-7.3c-3.77-3.36-5.64-7.92-5.62-13.66
			c-0.03-4.68,1.23-8.78,3.77-12.31s6.05-6.27,10.53-8.24c4.48-1.97,9.6-2.96,15.34-2.96c5.86,0,10.96,0.99,15.28,2.98
			c4.32,1.98,7.68,4.76,10.07,8.33c2.39,3.57,3.61,7.71,3.66,12.42H44.65z"/>
		<path d="M57.78,86.64h20.44l16,31.68h0.67l16-31.68h20.44l-27.68,50.42v25.28H85.46v-25.28L57.78,86.64z"/>
		<path d="M198.76,86.64v75.7h-15.52l-30.12-43.69h-0.48v43.69h-18.3v-75.7h15.75l29.79,43.62h0.63V86.64H198.76z"/>
		<path d="M274.25,114.07h-18.48c-0.25-1.9-0.75-3.61-1.51-5.14c-0.76-1.53-1.77-2.83-3.03-3.92c-1.26-1.08-2.74-1.92-4.45-2.5
			c-1.71-0.58-3.6-0.87-5.67-0.87c-3.67,0-6.83,0.9-9.48,2.7c-2.65,1.8-4.68,4.4-6.1,7.8s-2.12,7.52-2.12,12.35
			c0,5.03,0.72,9.23,2.16,12.62c1.44,3.39,3.47,5.94,6.1,7.65s5.73,2.57,9.33,2.57c2.02,0,3.86-0.26,5.53-0.78
			c1.66-0.52,3.13-1.27,4.4-2.27s2.32-2.22,3.14-3.66c0.83-1.44,1.4-3.07,1.72-4.9l18.48,0.11c-0.32,3.35-1.29,6.65-2.9,9.91
			c-1.61,3.25-3.83,6.22-6.63,8.89c-2.81,2.67-6.23,4.8-10.26,6.38c-4.03,1.58-8.64,2.37-13.84,2.37c-6.85,0-12.98-1.51-18.39-4.53
			c-5.41-3.02-9.68-7.42-12.81-13.21c-3.13-5.79-4.69-12.84-4.69-21.14c0-8.33,1.59-15.39,4.77-21.18
			c3.18-5.79,7.48-10.19,12.9-13.2c5.42-3.01,11.5-4.51,18.22-4.51c4.58,0,8.82,0.63,12.71,1.9s7.32,3.12,10.28,5.54
			c2.96,2.43,5.36,5.4,7.21,8.93C272.66,105.51,273.8,109.54,274.25,114.07z"/>
	</g>
</g>
</svg>
